<svg xmlns="http://www.w3.org/2000/svg" width="1000" height="1000" viewBox="0 0 1000 1000" version="1.1">
	<path d="M 261.251 227.545 C 245.641 231.748, 232.810 244.162, 228.009 259.705 C 226.053 266.040, 226 268.879, 226 368.105 L 226 470 348 470 L 470 470 470 348 L 470 226 368.250 226.066 C 283.869 226.120, 265.604 226.373, 261.251 227.545 M 502 344.916 L 502 463.877 511.750 457.343 C 566.402 420.720, 638.630 415.971, 698.500 445.065 C 708.440 449.895, 725.956 460.834, 733.388 466.852 C 736.420 469.308, 738.235 470, 741.638 470 L 746 470 746 370.136 C 746 307.903, 745.624 268.243, 745.001 264.886 C 742.312 250.383, 731.693 237.097, 717.295 230.222 L 709.500 226.500 605.750 226.227 L 502 225.955 502 344.916 M 339.952 297.253 C 333.808 301.394, 332.543 304.946, 332.152 319.152 L 331.804 331.804 319.152 332.152 C 308.599 332.442, 305.920 332.841, 303.003 334.554 C 292.146 340.932, 292.146 356.068, 303.003 362.446 C 305.924 364.162, 308.601 364.558, 319.250 364.850 L 332 365.201 332 376.889 C 332 387.038, 332.296 389.156, 334.250 392.980 C 337.581 399.498, 340.888 401.500, 348.323 401.500 C 353.111 401.500, 355.203 400.999, 357.627 399.270 C 362.933 395.485, 364.393 391.035, 364.821 377.350 L 365.200 365.200 377.350 364.821 C 391.035 364.393, 395.485 362.933, 399.270 357.627 C 402.470 353.141, 402.419 343.789, 399.171 339.235 C 395.204 333.673, 391.970 332.603, 377.865 332.182 L 365.230 331.805 364.832 319.030 C 364.466 307.260, 364.228 305.942, 361.806 302.284 C 357.029 295.064, 346.721 292.692, 339.952 297.253 M 581.500 333.485 C 570.222 337.520, 567.029 351.229, 575.413 359.613 C 580.663 364.863, 583.160 365.115, 626.767 364.793 C 665.714 364.506, 666.570 364.456, 670.038 362.299 C 674.510 359.518, 678.005 353.388, 677.984 348.364 C 677.961 342.995, 674.340 337.115, 669.500 334.588 C 665.661 332.584, 663.890 332.491, 625.500 332.277 C 592.904 332.095, 584.760 332.319, 581.500 333.485 M 598.857 459.076 C 550.779 464.173, 506.253 492.693, 480.936 534.606 C 453.808 579.518, 450.828 635.523, 473.053 682.778 C 494.523 728.426, 535.204 760.531, 585 771.122 C 599.338 774.171, 629.488 774.433, 644.500 771.638 C 665.626 767.706, 686.569 759.124, 705 746.849 C 716.675 739.073, 737.393 718.808, 745.254 707.476 C 757.510 689.806, 766.670 668.669, 771.182 647.648 C 774.185 633.653, 774.418 602.410, 771.630 587.500 C 756.420 506.147, 681.332 450.333, 598.857 459.076 M 226 603.290 C 226 714.695, 225.790 710.647, 232.133 721.733 C 236.166 728.781, 243.593 735.972, 250.819 739.823 C 262.852 746.236, 258.323 746, 369.210 746 L 470 746 470 741.894 C 470 738.386, 468.992 736.421, 463.075 728.394 C 450.345 711.125, 441.647 693.975, 434.666 672.377 C 425.109 642.812, 423.414 607.507, 430.062 576.500 C 434.728 554.742, 445.033 530.222, 457.276 511.750 L 463.738 502 344.869 502 L 226 502 226 603.290 M 575.275 573.971 C 559.377 577.748, 558.112 598.676, 573.428 604.526 C 576.939 605.866, 583.232 606.045, 618.008 605.793 L 658.500 605.500 662.281 603.149 C 666.538 600.502, 670 594.609, 670 590.008 C 670 582.913, 664.524 576.073, 657.219 574.044 C 652.898 572.844, 580.291 572.779, 575.275 573.971 M 317 582.167 C 312.565 583.417, 307.364 588.367, 305.934 592.699 C 305.297 594.629, 305.130 597.828, 305.538 600.271 C 306.140 603.872, 307.665 605.947, 315.808 614.248 L 325.371 623.997 316.300 633.248 C 305.767 643.991, 303.818 648.111, 305.932 655.167 C 308.314 663.117, 316.463 668.074, 324.634 666.541 C 327.683 665.969, 330.445 663.873, 338.230 656.224 L 348 646.626 357.770 656.224 C 365.555 663.873, 368.317 665.969, 371.366 666.541 C 379.511 668.069, 387.728 662.979, 390.146 654.908 C 392.172 648.145, 390.107 643.862, 379.701 633.250 L 370.632 624 379.701 614.750 C 386.195 608.128, 389.115 604.352, 389.981 601.460 C 393.370 590.142, 382.058 578.938, 370.468 582.135 C 367.570 582.935, 364.011 585.670, 357.269 592.280 L 348.038 601.331 338.650 592.249 C 331.967 585.784, 328.143 582.856, 325.381 582.089 C 323.246 581.496, 321.275 581.049, 321 581.096 C 320.725 581.142, 318.925 581.624, 317 582.167 M 573.500 628.485 C 562.222 632.520, 559.029 646.229, 567.413 654.613 C 572.663 659.863, 575.160 660.115, 618.767 659.793 C 658.181 659.502, 658.530 659.482, 662.179 657.212 C 666.392 654.593, 670 648.046, 670 643.022 C 670 638.207, 665.791 631.619, 661.284 629.380 C 657.795 627.647, 654.378 627.483, 617.500 627.277 C 584.904 627.095, 576.760 627.319, 573.500 628.485" stroke="none" fill="black" fill-rule="evenodd"/>
</svg>